<svg preserveAspectRatio="none" width="100%" height="100%" overflow="visible" style="display: block;" viewBox="0 0 40 40" fill="none" xmlns="http://www.w3.org/2000/svg">
<g id="Money" clip-path="url(#clip0_2068_859)">
<g id="Vector">
</g>
<path id="Vector_2" d="M20 25C22.7614 25 25 22.7614 25 20C25 17.2386 22.7614 15 20 15C17.2386 15 15 17.2386 15 20C15 22.7614 17.2386 25 20 25Z" stroke="var(--stroke-0, #233CC5)" stroke-width="2" stroke-linecap="round" stroke-linejoin="round"/>
<path id="Vector_3" d="M37.5 10H2.5V30H37.5V10Z" stroke="var(--stroke-0, #233CC5)" stroke-width="2" stroke-linecap="round" stroke-linejoin="round"/>
<path id="Vector_4" d="M37.5 16.25C35.9386 15.9854 34.4981 15.2416 33.3783 14.1217C32.2584 13.0019 31.5146 11.5614 31.25 10" stroke="var(--stroke-0, #233CC5)" stroke-width="2" stroke-linecap="round" stroke-linejoin="round"/>
<path id="Vector_5" d="M31.25 30C31.5146 28.4386 32.2584 26.9981 33.3783 25.8783C34.4981 24.7584 35.9386 24.0146 37.5 23.75" stroke="var(--stroke-0, #233CC5)" stroke-width="2" stroke-linecap="round" stroke-linejoin="round"/>
<path id="Vector_6" d="M2.5 23.75C4.06143 24.0146 5.50188 24.7584 6.62173 25.8783C7.74157 26.9981 8.48535 28.4386 8.75 30" stroke="var(--stroke-0, #233CC5)" stroke-width="2" stroke-linecap="round" stroke-linejoin="round"/>
<path id="Vector_7" d="M8.75 10C8.48535 11.5614 7.74157 13.0019 6.62173 14.1217C5.50188 15.2416 4.06143 15.9854 2.5 16.25" stroke="var(--stroke-0, #233CC5)" stroke-width="2" stroke-linecap="round" stroke-linejoin="round"/>
</g>
<defs>
<clipPath id="clip0_2068_859">
<rect width="40" height="40" fill="white"/>
</clipPath>
</defs>
</svg>
