<svg preserveAspectRatio="none" width="100%" height="100%" overflow="visible" style="display: block;" viewBox="0 0 40 40" fill="none" xmlns="http://www.w3.org/2000/svg">
<g id="Cardholder" clip-path="url(#clip0_2068_840)">
<g id="Vector">
</g>
<path id="Vector_2" d="M32.5 8.75H7.5C6.11929 8.75 5 9.86929 5 11.25V28.75C5 30.1307 6.11929 31.25 7.5 31.25H32.5C33.8807 31.25 35 30.1307 35 28.75V11.25C35 9.86929 33.8807 8.75 32.5 8.75Z" stroke="var(--stroke-0, #233CC5)" stroke-width="2" stroke-linecap="round" stroke-linejoin="round"/>
<path id="Vector_3" d="M5 18.75H15C15 20.0761 15.5268 21.3479 16.4645 22.2855C17.4021 23.2232 18.6739 23.75 20 23.75C21.3261 23.75 22.5979 23.2232 23.5355 22.2855C24.4732 21.3479 25 20.0761 25 18.75H35" stroke="var(--stroke-0, #233CC5)" stroke-width="2" stroke-linecap="round" stroke-linejoin="round"/>
<path id="Vector_4" d="M5 13.75H35" stroke="var(--stroke-0, #233CC5)" stroke-width="2" stroke-linecap="round" stroke-linejoin="round"/>
</g>
<defs>
<clipPath id="clip0_2068_840">
<rect width="40" height="40" fill="white"/>
</clipPath>
</defs>
</svg>
